<svg width="12" height="8" viewBox="0 0 12 8" fill="none" xmlns="http://www.w3.org/2000/svg">
<path d="M10.9997 1.16994C10.8123 0.983692 10.5589 0.87915 10.2947 0.87915C10.0305 0.87915 9.77707 0.983692 9.5897 1.16994L5.9997 4.70994L2.4597 1.16994C2.27234 0.983692 2.01889 0.87915 1.7547 0.87915C1.49052 0.87915 1.23707 0.983692 1.0497 1.16994C0.955976 1.26291 0.881582 1.37351 0.830813 1.49537C0.780044 1.61723 0.753906 1.74793 0.753906 1.87994C0.753906 2.01195 0.780044 2.14266 0.830813 2.26452C0.881582 2.38638 0.955976 2.49698 1.0497 2.58994L5.2897 6.82994C5.38267 6.92367 5.49327 6.99806 5.61513 7.04883C5.73699 7.0996 5.86769 7.12574 5.9997 7.12574C6.13172 7.12574 6.26242 7.0996 6.38428 7.04883C6.50614 6.99806 6.61674 6.92367 6.7097 6.82994L10.9997 2.58994C11.0934 2.49698 11.1678 2.38638 11.2186 2.26452C11.2694 2.14266 11.2955 2.01195 11.2955 1.87994C11.2955 1.74793 11.2694 1.61723 11.2186 1.49537C11.1678 1.37351 11.0934 1.26291 10.9997 1.16994Z" fill="#7E90A6"/>
</svg>
