<svg width="21" height="20" viewBox="0 0 21 20" fill="none" xmlns="http://www.w3.org/2000/svg">
<path d="M11.09 11.0001L8.79 13.2901C8.69627 13.3831 8.62188 13.4937 8.57111 13.6155C8.52034 13.7374 8.4942 13.8681 8.4942 14.0001C8.4942 14.1321 8.52034 14.2628 8.57111 14.3847C8.62188 14.5065 8.69627 14.6171 8.79 14.7101C8.88296 14.8038 8.99356 14.8782 9.11542 14.929C9.23728 14.9798 9.36799 15.0059 9.5 15.0059C9.63201 15.0059 9.76272 14.9798 9.88458 14.929C10.0064 14.8782 10.117 14.8038 10.21 14.7101L14.21 10.7101C14.301 10.615 14.3724 10.5029 14.42 10.3801C14.52 10.1366 14.52 9.86356 14.42 9.6201C14.3724 9.49735 14.301 9.3852 14.21 9.2901L10.21 5.2901C10.1168 5.19686 10.0061 5.1229 9.88425 5.07244C9.76243 5.02198 9.63186 4.99601 9.5 4.99601C9.36814 4.99601 9.23757 5.02198 9.11575 5.07244C8.99393 5.1229 8.88324 5.19686 8.79 5.2901C8.69676 5.38334 8.6228 5.49403 8.57234 5.61585C8.52188 5.73767 8.49591 5.86824 8.49591 6.0001C8.49591 6.13196 8.52188 6.26253 8.57234 6.38435C8.6228 6.50617 8.69676 6.61686 8.79 6.7101L11.09 9.0001H1.5C1.23478 9.0001 0.98043 9.10546 0.792893 9.29299C0.605357 9.48053 0.5 9.73488 0.5 10.0001C0.5 10.2653 0.605357 10.5197 0.792893 10.7072C0.98043 10.8947 1.23478 11.0001 1.5 11.0001H11.09ZM10.5 9.96937e-05C8.63109 -0.00824409 6.79724 0.507313 5.20647 1.48829C3.61569 2.46927 2.33165 3.87641 1.5 5.5501C1.38065 5.78879 1.36101 6.06512 1.44541 6.3183C1.5298 6.57147 1.71131 6.78075 1.95 6.9001C2.18869 7.01945 2.46502 7.03909 2.7182 6.95469C2.97137 6.8703 3.18065 6.68879 3.3 6.4501C3.93219 5.17342 4.89383 4.08872 6.08555 3.30809C7.27727 2.52746 8.65582 2.07922 10.0788 2.00969C11.5017 1.94017 12.9174 2.25188 14.1795 2.91261C15.4417 3.57334 16.5045 4.55913 17.2581 5.7681C18.0118 6.97706 18.4289 8.36535 18.4664 9.78948C18.5039 11.2136 18.1605 12.6219 17.4715 13.8689C16.7826 15.1159 15.7731 16.1563 14.5475 16.8825C13.3219 17.6088 11.9246 17.9946 10.5 18.0001C9.00888 18.0066 7.54615 17.5925 6.27969 16.8053C5.01323 16.0182 3.99435 14.89 3.34 13.5501C3.22065 13.3114 3.01137 13.1299 2.7582 13.0455C2.50502 12.9611 2.22869 12.9808 1.99 13.1001C1.75131 13.2194 1.5698 13.4287 1.48541 13.6819C1.40101 13.9351 1.42065 14.2114 1.54 14.4501C2.33283 16.0456 3.53752 17.4003 5.02947 18.3741C6.52142 19.348 8.24645 19.9055 10.0261 19.9891C11.8058 20.0727 13.5755 19.6793 15.1521 18.8496C16.7288 18.0199 18.0552 16.7841 18.9941 15.2699C19.933 13.7558 20.4503 12.0182 20.4925 10.2371C20.5347 8.45597 20.1003 6.69589 19.2342 5.13893C18.3682 3.58197 17.1018 2.28467 15.5663 1.38121C14.0307 0.477745 12.2816 0.000936146 10.5 9.96937e-05Z" fill="white" fill-opacity="0.6"/>
</svg>
