<svg width="18" height="20" viewBox="0 0 18 20" fill="none" xmlns="http://www.w3.org/2000/svg">
<path d="M17.1801 8.19C16.4608 8.05985 15.7311 7.99624 15.0001 8C14.5801 8 14.1701 8 13.7601 8.08C13.2497 7.39888 12.5982 6.83605 11.8501 6.43C12.4927 5.72825 12.8494 4.81148 12.8501 3.86C12.8501 2.83626 12.4435 1.85446 11.7196 1.13057C10.9957 0.406677 10.0139 0 8.99013 0C7.9664 0 6.98459 0.406677 6.2607 1.13057C5.53681 1.85446 5.13013 2.83626 5.13013 3.86C5.13087 4.81148 5.48759 5.72825 6.13013 6.43C5.38653 6.83816 4.73606 7.39668 4.22013 8.07C3.83013 8 3.42013 8 3.00013 8C2.26856 8.00284 1.5388 8.07314 0.820133 8.21C0.587175 8.2526 0.376895 8.37649 0.226732 8.55961C0.0765696 8.74274 -0.0037292 8.97321 0.00013311 9.21V17.46C-0.000105472 17.6069 0.0320283 17.7521 0.0942493 17.8852C0.15647 18.0182 0.24725 18.136 0.360133 18.23C0.472304 18.3246 0.603914 18.3933 0.745627 18.4313C0.887339 18.4694 1.03568 18.4757 1.18013 18.45C1.77854 18.3197 2.3879 18.246 3.00013 18.23C4.93723 18.2279 6.8323 18.7947 8.45013 19.86L8.58013 19.91C8.71278 19.9676 8.85555 19.9982 9.00013 20C9.09558 19.9988 9.19018 19.9819 9.28013 19.95H9.35013L9.48013 19.9C11.1134 18.8073 13.0351 18.2259 15.0001 18.23C15.6111 18.2328 16.2204 18.2931 16.8201 18.41C16.9646 18.4357 17.1129 18.4294 17.2546 18.3913C17.3964 18.3533 17.528 18.2846 17.6401 18.19C17.753 18.096 17.8438 17.9782 17.906 17.8452C17.9682 17.7121 18.0004 17.5669 18.0001 17.42V9.17C17.9993 8.93664 17.9168 8.71092 17.7671 8.53195C17.6173 8.35297 17.4097 8.232 17.1801 8.19ZM9.00013 2C9.46858 2.03442 9.90666 2.2448 10.2264 2.58888C10.5461 2.93297 10.7238 3.38529 10.7238 3.855C10.7238 4.32471 10.5461 4.77703 10.2264 5.12112C9.90666 5.4652 9.46858 5.67558 9.00013 5.71C8.53169 5.67558 8.09361 5.4652 7.77387 5.12112C7.45414 4.77703 7.27642 4.32471 7.27642 3.855C7.27642 3.38529 7.45414 2.93297 7.77387 2.58888C8.09361 2.2448 8.53169 2.03442 9.00013 2ZM8.00013 17.33C6.43281 16.6055 4.7268 16.2302 3.00013 16.23C2.67013 16.23 2.34013 16.23 2.00013 16.28V10C2.8387 9.90619 3.68595 9.923 4.52013 10.05H4.63013C5.82173 10.269 6.96361 10.7027 8.00013 11.33V17.33ZM9.00013 9.6C8.55546 9.34348 8.09447 9.11633 7.62013 8.92H7.56013C7.23013 8.79 6.90013 8.66 6.56013 8.56C7.25445 8.00737 8.11281 7.70132 9.00013 7.69C9.8851 7.69561 10.7432 7.99455 11.4401 8.54C10.5912 8.80503 9.77321 9.1604 9.00013 9.6ZM16.0001 16.28C13.9468 16.0737 11.8756 16.4189 10.0001 17.28V11.28C11.0385 10.6688 12.1811 10.2552 13.3701 10.06H13.5701C14.3741 9.9348 15.191 9.91463 16.0001 10V16.28Z" fill="#63748A"/>
</svg>
